# xmcd
#
# Track frame offsets: 
#        150
#        21740
#        36020
#        55512
#        76587
#        105310
#        120412
#        138975
#        155242
#
# Disc length: 2291 seconds
#
# Revision: 1
# Processed by: cddbd v1.5.2PL0 Copyright (c) Steve Scherf et al.
# Submitted via: ExactAudioCopy v0.99pb5
#
DISCID=6708f109
DTITLE=The Main Ingredient - Euphrates River
DYEAR=1972
DGENRE=R&B
TTITLE0=Euphrates
TTITLE1=Have You Ever Tried It
TTITLE2=Summer Breeze
TTITLE3=California My Way
TTITLE4=Happiness Is Just Around The Bend
TTITLE5=Looks Like Rain
TTITLE6=Don't You Worry 'Bout A Thing
TTITLE7=Just Don't Want To Be Lonely
TTITLE8=Let Me Prove My Love To You
EXTD=
EXTT0=
EXTT1=
EXTT2=
EXTT3=
EXTT4=
EXTT5=
EXTT6=
EXTT7=
EXTT8=
PLAYORDER=
